This is from a SD broadcast.  Enjoy and please share.							

													

													

													

													

******************************************************************************************************

******************************************************************************************************	

													

													

													

							

Minnesota_VS_Northwestern_First_Half_480p_x264_20110310_TTL.avi
Format                           : AVI
Format/Info                      : Audio Video Interleave
Format profile                   : OpenDML
File size                        : 1.18 GiB
Duration                         : 30mn 52s
Overall bit rate                 : 5 493 Kbps
Movie name                       : Minnesota_VS_Northwestern_First_Half_480p_20110310_TTL.mpg
Director                         : created.with.SUPER(C).v2010.bld.37
Writing application              : SUPER(C)   

Video
ID                               : 0
Format                           : AVC
Format/Info                      : Advanced Video Codec
Format profile                   : Baseline@L1.1
Format settings, CABAC           : No
Format settings, ReFrames        : 1 frame
Codec ID                         : H264
Duration                         : 30mn 52s
Bit rate                         : 5 367 Kbps
Width                            : 624 pixels
Height                           : 352 pixels
Display aspect ratio             : 16:9
Frame rate                       : 29.970 fps
Resolution                       : 8 bits
Colorimetry                      : 4:2:0
Scan type                        : Progressive
Bits/(Pixel*Frame)               : 0.815
Stream size                      : 1.16 GiB (98%)
Writing library                  : x264 H.264/MPEG-4 AVC codec   / created.by.SUPER(C).eRightSoft

Audio
ID                               : 1
Format                           : AC-3
Format/Info                      : Audio Coding 3
Codec ID                         : 2000
Duration                         : 30mn 52s
Bit rate mode                    : Constant
Bit rate                         : 112 Kbps
Channel(s)                       : 2 channels
Channel positions                : L R
Sampling rate                    : 44.1 KHz
Resolution                       : 16 bits
Stream size                      : 24.7 MiB (2%)
Alignment                        : Aligned on interleaves
Interleave, duration             : 35 ms (1.04 video frame)
Interleave, preload duration     : 34 ms

